<?xml version="1.0" standalone="no"?>
<!DOCTYPE svg PUBLIC "-//W3C//DTD SVG 20010904//EN"
 "http://www.w3.org/TR/2001/REC-SVG-20010904/DTD/svg10.dtd">
<svg version="1.0" xmlns="http://www.w3.org/2000/svg"
 width="100.000000pt" height="100.000000pt" viewBox="0 0 100.000000 100.000000"
 preserveAspectRatio="xMidYMid meet">
<metadata>
Created by potrace 1.11, written by Peter Selinger 2001-2013
</metadata>
<g transform="translate(0.000000,100.000000) scale(0.100000,-0.100000)"
fill="#000000" stroke="none">
<path d="M160 865 c0 -11 11 -15 39 -15 21 0 44 -6 50 -14 9 -11 11 -90 9
-296 l-3 -282 -24 -19 c-13 -10 -34 -19 -47 -19 -15 0 -24 -6 -24 -15 0 -12
19 -15 115 -15 96 0 115 3 115 15 0 8 -9 15 -21 15 -35 0 -58 19 -69 58 -12
45 -14 520 -1 507 5 -6 48 -144 97 -308 54 -182 93 -297 101 -297 7 0 19 24
27 53 9 28 47 166 85 306 39 140 73 256 76 259 3 3 5 -121 5 -274 0 -205 -3
-283 -12 -292 -7 -7 -29 -12 -50 -12 -27 0 -38 -4 -38 -15 0 -13 22 -15 140
-15 115 0 140 3 140 14 0 10 -14 16 -42 18 l-43 3 0 310 0 310 43 3 c28 2 42
8 42 18 0 11 -19 14 -100 14 l-99 0 -10 -37 c-6 -21 -39 -140 -73 -265 -59
-214 -63 -226 -74 -195 -6 17 -42 137 -79 265 l-69 232 -103 0 c-85 0 -103 -3
-103 -15z"/>
</g>
</svg>
